<svg width="36" height="36" viewBox="0 0 36 36" fill="none" xmlns="http://www.w3.org/2000/svg">
<path d="M13.5 16.5C13.5 16.1022 13.658 15.7206 13.9393 15.4393C14.2206 15.158 14.6022 15 15 15H21C21.3978 15 21.7794 15.158 22.0607 15.4393C22.342 15.7206 22.5 16.1022 22.5 16.5C22.5 16.8978 22.342 17.2794 22.0607 17.5607C21.7794 17.842 21.3978 18 21 18H15C14.6022 18 14.2206 17.842 13.9393 17.5607C13.658 17.2794 13.5 16.8978 13.5 16.5ZM36 27V28.5C35.9976 30.4884 35.2067 32.3947 33.8007 33.8007C32.3947 35.2067 30.4884 35.9976 28.5 36H7.5C5.51161 35.9976 3.60534 35.2067 2.19933 33.8007C0.793323 32.3947 0.00238179 30.4884 0 28.5L0 27C0.00218179 25.2717 0.600135 23.597 1.69308 22.2581C2.78602 20.9193 4.30712 19.9981 6 19.65V18C6.00259 15.8917 6.56062 13.8212 7.61789 11.9971C8.67516 10.1731 10.1943 8.65972 12.0225 7.6095C12.0195 7.572 12 7.539 12 7.5V6C12 4.4087 12.6321 2.88258 13.7574 1.75736C14.8826 0.632141 16.4087 0 18 0C19.5913 0 21.1174 0.632141 22.2426 1.75736C23.3679 2.88258 24 4.4087 24 6V7.5C24 7.539 23.9805 7.572 23.9775 7.6095C25.8057 8.65972 27.3248 10.1731 28.3821 11.9971C29.4394 13.8212 29.9974 15.8917 30 18V19.65C31.6929 19.9981 33.214 20.9193 34.3069 22.2581C35.3999 23.597 35.9978 25.2717 36 27ZM15 6.3945C16.9654 5.8685 19.0346 5.8685 21 6.3945V6C21 5.20435 20.6839 4.44129 20.1213 3.87868C19.5587 3.31607 18.7956 3 18 3C17.2044 3 16.4413 3.31607 15.8787 3.87868C15.3161 4.44129 15 5.20435 15 6V6.3945ZM9 24.8025C10.1698 23.5992 11.569 22.6427 13.1148 21.9896C14.6607 21.3365 16.3218 20.9999 18 20.9999C19.6782 20.9999 21.3393 21.3365 22.8852 21.9896C24.431 22.6427 25.8302 23.5992 27 24.8025V18C27 15.6131 26.0518 13.3239 24.364 11.636C22.6761 9.94821 20.3869 9 18 9C15.6131 9 13.3239 9.94821 11.636 11.636C9.94821 13.3239 9 15.6131 9 18V24.8025ZM7.5 33H7.539C6.54629 31.7094 6.00552 30.1282 6 28.5V22.776C5.12564 23.0851 4.36814 23.6568 3.83113 24.413C3.29413 25.1691 3.00384 26.0726 3 27V28.5C3 29.6935 3.47411 30.8381 4.31802 31.682C5.16193 32.5259 6.30653 33 7.5 33ZM22.5 33C23.4775 32.9954 24.427 32.6727 25.2048 32.0805C25.9826 31.4884 26.5464 30.6591 26.811 29.718C26.0516 28.0157 24.8153 26.5699 23.2517 25.5552C21.6881 24.5406 19.864 24.0007 18 24.0007C16.136 24.0007 14.3119 24.5406 12.7483 25.5552C11.1847 26.5699 9.9484 28.0157 9.189 29.718C9.45358 30.6591 10.0174 31.4884 10.7952 32.0805C11.573 32.6727 12.5225 32.9954 13.5 33H22.5ZM33 27C32.9962 26.0726 32.7059 25.1691 32.1689 24.413C31.6319 23.6568 30.8744 23.0851 30 22.776V28.5C29.9945 30.1282 29.4537 31.7094 28.461 33H28.5C29.6935 33 30.8381 32.5259 31.682 31.682C32.5259 30.8381 33 29.6935 33 28.5V27Z" fill="#2374EE"/>
</svg>
