<svg width="36" height="34" viewBox="0 0 36 34" fill="none" xmlns="http://www.w3.org/2000/svg">
<path d="M33.0863 6.37866L22.0253 1.10916C19.5905 -0.345187 16.56 -0.370992 14.1008 1.04166L2.91533 6.37866C2.87335 6.39968 2.82983 6.42218 2.78933 6.44616C0.134888 7.96392 -0.786628 11.3462 0.731138 14.0006C1.24561 14.9005 2.00239 15.6378 2.91533 16.1287L6.00085 17.5987V24.9487C6.00268 28.2353 8.14123 31.1389 11.2794 32.1157C13.4632 32.7475 15.7276 33.0568 18.0009 33.0337C20.2738 33.0592 22.5382 32.7525 24.7224 32.1232C27.8605 31.1465 29.9991 28.2428 30.0009 24.9562V17.5957L33.0009 16.1617V28.5336C33.0009 29.3621 33.6725 30.0336 34.5009 30.0336C35.3293 30.0336 36.0009 29.3621 36.0009 28.5336V10.5336C36.0109 8.77223 34.6201 7.14506 33.0863 6.37866ZM27.0008 24.9562C27.0016 26.9221 25.7261 28.661 23.8508 29.2507C21.9491 29.7941 19.9785 30.0578 18.0008 30.0337C16.0231 30.0578 14.0525 29.7941 12.1508 29.2507C10.2755 28.6609 9.00003 26.9221 9.0008 24.9562V19.0282L13.9763 21.3982C15.204 22.1272 16.6061 22.5103 18.0338 22.5067C19.3928 22.5164 20.729 22.1566 21.8994 21.4657L27.0008 19.0282V24.9562ZM31.8008 13.4212L20.4878 18.8212C18.9104 19.7396 16.9553 19.7136 15.4028 18.7537L4.3343 13.4887C3.10053 12.8234 2.6397 11.2839 3.305 10.0502C3.53 9.63293 3.86736 9.28706 4.27883 9.05166L15.5213 3.68168C17.0992 2.76523 19.0533 2.79117 20.6063 3.74918L31.6673 9.01868C32.4807 9.47037 32.9897 10.3233 33.0008 11.2537C33.0023 12.135 32.5485 12.9546 31.8008 13.4212Z" fill="#2374EE"/>
</svg>
