<svg width="36" height="36" viewBox="0 0 36 36" fill="none" xmlns="http://www.w3.org/2000/svg">
<path d="M29.85 4.6401C29.6656 3.84758 29.3219 3.10085 28.8398 2.44533C28.3577 1.78981 27.7474 1.23919 27.0458 0.826959C26.3443 0.414731 25.5662 0.149506 24.7589 0.0474136C23.9517 -0.0546784 23.1321 0.00849632 22.35 0.233096L19.764 0.972596C19.1089 1.16088 18.5055 1.49642 18 1.9536C17.4945 1.49642 16.8911 1.16088 16.236 0.972596L13.65 0.233096C12.8684 0.00966693 12.0496 -0.0526071 11.2432 0.0500535C10.4368 0.152714 9.65963 0.418168 8.95895 0.830303C8.25826 1.24244 7.64863 1.79266 7.16706 2.44757C6.68549 3.10247 6.34202 3.84841 6.1575 4.6401C4.4322 4.95399 2.87143 5.86253 1.7465 7.20779C0.621566 8.55305 0.00359398 10.25 0 12.0036L0 22.5036C0.00238179 24.492 0.793323 26.3983 2.19933 27.8043C3.60534 29.2103 5.51161 30.0012 7.5 30.0036H16.5V33.0036H12C11.6022 33.0036 11.2206 33.1616 10.9393 33.4429C10.658 33.7242 10.5 34.1058 10.5 34.5036C10.5 34.9014 10.658 35.283 10.9393 35.5643C11.2206 35.8456 11.6022 36.0036 12 36.0036H24C24.3978 36.0036 24.7794 35.8456 25.0607 35.5643C25.342 35.283 25.5 34.9014 25.5 34.5036C25.5 34.1058 25.342 33.7242 25.0607 33.4429C24.7794 33.1616 24.3978 33.0036 24 33.0036H19.5V30.0036H28.5C30.4884 30.0012 32.3947 29.2103 33.8007 27.8043C35.2067 26.3983 35.9976 24.492 36 22.5036V12.0036C35.9967 10.251 35.3798 8.55498 34.2564 7.20987C33.1329 5.86476 31.5739 4.95555 29.85 4.6401ZM19.5 5.3001C19.5001 4.97432 19.6063 4.65744 19.8025 4.39738C19.9987 4.13731 20.2743 3.94818 20.5875 3.8586L23.175 3.1191C23.6215 2.99138 24.0916 2.96907 24.5482 3.05394C25.0048 3.13881 25.4355 3.32854 25.8063 3.60817C26.1771 3.88781 26.4779 4.24971 26.6851 4.66539C26.8922 5.08107 27 5.53917 27 6.0036V11.9106C26.9979 12.5615 26.7848 13.1942 26.3927 13.7138C26.0005 14.2333 25.4504 14.6117 24.825 14.7921L19.5 16.3131V5.3001ZM10.2 3.6036C10.5701 3.32498 10.9999 3.13618 11.4554 3.0521C11.911 2.96801 12.3798 2.99095 12.825 3.1191L15.4125 3.8586C15.7257 3.94818 16.0013 4.13731 16.1975 4.39738C16.3937 4.65744 16.4999 4.97432 16.5 5.3001V16.3131L11.175 14.7921C10.5496 14.6117 9.99951 14.2333 9.60735 13.7138C9.21519 13.1942 9.00208 12.5615 9 11.9106V6.0036C8.99847 5.53759 9.10624 5.07772 9.31464 4.66092C9.52305 4.24411 9.82628 3.88198 10.2 3.6036ZM33 22.5036C33 23.6971 32.5259 24.8417 31.682 25.6856C30.8381 26.5295 29.6935 27.0036 28.5 27.0036H7.5C6.30653 27.0036 5.16193 26.5295 4.31802 25.6856C3.47411 24.8417 3 23.6971 3 22.5036V12.0036C3.00384 11.0762 3.29413 10.1727 3.83113 9.41655C4.36814 8.66044 5.12564 8.08872 6 7.7796V11.9106C6.00367 13.2131 6.42963 14.4793 7.21394 15.5192C7.99826 16.5591 9.09865 17.3166 10.35 17.6781L15.5265 19.1586C17.1443 19.6197 18.8587 19.6197 20.4765 19.1586L25.653 17.6781C26.9038 17.3161 28.0035 16.5583 28.7873 15.5185C29.571 14.4786 29.9965 13.2127 30 11.9106V7.7796C30.8744 8.08872 31.6319 8.66044 32.1689 9.41655C32.7059 10.1727 32.9962 11.0762 33 12.0036V22.5036Z" fill="#2374EE"/>
</svg>
