<svg width="24" height="24" viewBox="0 0 24 24" fill="none" xmlns="http://www.w3.org/2000/svg">
<path d="M11.2256 6.85742C11.6305 6.89106 12.0183 7.03832 12.3457 7.28223H12.3467L16.1885 10.1514H16.1904L16.2529 10.1992C16.5311 10.4068 16.7574 10.6776 16.9131 10.9902C17.0687 11.3029 17.1503 11.6488 17.1504 11.999C17.1504 12.3494 17.0688 12.6951 16.9131 13.0078C16.7574 13.3206 16.5312 13.5921 16.2529 13.7998L12.3477 16.7168C12.0204 16.9611 11.6326 17.1086 11.2275 17.1426C10.8224 17.1764 10.4151 17.0951 10.0527 16.9082C9.69066 16.7214 9.38696 16.4363 9.1748 16.085C8.9626 15.7335 8.84972 15.3291 8.84961 14.917V9.08301C8.84978 8.67099 8.96266 8.26642 9.1748 7.91504C9.38696 7.56373 9.69066 7.27861 10.0527 7.0918C10.4148 6.90501 10.8207 6.82387 11.2256 6.85742ZM9.96875 14.917C9.96911 15.1202 10.0246 15.3194 10.1289 15.4922C10.2335 15.6652 10.3833 15.805 10.5605 15.8965C10.7377 15.9879 10.9361 16.028 11.1338 16.0117C11.3316 15.9954 11.522 15.9232 11.6826 15.8037L15.5879 12.8867L15.625 12.8584C15.7438 12.7609 15.8428 12.6403 15.9121 12.501C15.9888 12.3468 16.0283 12.1759 16.0283 12.0029C16.0283 11.8299 15.9888 11.6591 15.9121 11.5049C15.8354 11.3507 15.7242 11.2172 15.5879 11.1152L11.6816 8.19824L11.6807 8.19727C11.4978 8.05858 11.2763 7.98331 11.0488 7.98242C10.8789 7.98275 10.7113 8.024 10.5596 8.10254L10.5586 8.10352C10.3806 8.19311 10.2304 8.33198 10.126 8.50488C10.0216 8.67786 9.96679 8.87766 9.96875 9.08105V14.917Z" fill="#063852" stroke="#063852" stroke-width="0.3"/>
<rect x="0.8" y="0.8" width="22.4" height="22.4" rx="11.2" stroke="#063852" stroke-width="1.6"/>
</svg>
